<?xml version="1.0" encoding="UTF-8" standalone="no"?>
<!DOCTYPE svg PUBLIC "-//W3C//DTD SVG 1.1//EN"
 "http://www.w3.org/Graphics/SVG/1.1/DTD/svg11.dtd">
<!-- Generated by graphviz version 2.40.1 (20161225.0304)
 -->
<!-- Title: dependencies Pages: 1 -->
<svg width="6676pt" height="284pt"
 viewBox="0.00 0.00 6676.00 284.00" xmlns="http://www.w3.org/2000/svg" xmlns:xlink="http://www.w3.org/1999/xlink">
<g id="graph0" class="graph" transform="scale(1 1) rotate(0) translate(4 280)">
<title>dependencies</title>
<polygon fill="#ffffff" stroke="transparent" points="-4,4 -4,-280 6672,-280 6672,4 -4,4"/>
<text text-anchor="start" x="3313.0091" y="-42.4" font-family="sans-serif" font-weight="bold" font-size="14.00" fill="#000000">Legend</text>
<polygon fill="#ffffb3" stroke="transparent" points="3100,-10 3100,-30 3120,-30 3120,-10 3100,-10"/>
<text text-anchor="start" x="3123.629" y="-15.4" font-family="sans-serif" font-size="14.00" fill="#000000"> &#160;Declarations</text>
<polygon fill="#8dd3c7" stroke="transparent" points="3213,-10 3213,-30 3233,-30 3233,-10 3213,-10"/>
<text text-anchor="start" x="3236.7251" y="-15.4" font-family="sans-serif" font-size="14.00" fill="#000000"> &#160;Module</text>
<polygon fill="#80b1d3" stroke="transparent" points="3299,-10 3299,-30 3319,-30 3319,-10 3299,-10"/>
<text text-anchor="start" x="3322.7812" y="-15.4" font-family="sans-serif" font-size="14.00" fill="#000000"> &#160;Bootstrap</text>
<polygon fill="#fdb462" stroke="transparent" points="3396,-10 3396,-30 3416,-30 3416,-10 3396,-10"/>
<text text-anchor="start" x="3419.6732" y="-15.4" font-family="sans-serif" font-size="14.00" fill="#000000"> &#160;Providers</text>
<polygon fill="#fb8072" stroke="transparent" points="3492,-10 3492,-30 3512,-30 3512,-10 3492,-10"/>
<text text-anchor="start" x="3515.7258" y="-15.4" font-family="sans-serif" font-size="14.00" fill="#000000"> &#160;Exports</text>
<g id="clust1" class="cluster">
<title>cluster_AppModule</title>
<polygon fill="none" stroke="#000000" stroke-dasharray="1,5" points="8,-70 8,-268 6660,-268 6660,-70 8,-70"/>
</g>
<g id="clust2" class="cluster">
<title>cluster_AppModule_declarations</title>
<polygon fill="none" stroke="#000000" points="1763,-78 1763,-130 6652,-130 6652,-78 1763,-78"/>
</g>
<g id="clust31" class="cluster">
<title>cluster_AppModule_imports</title>
<polygon fill="none" stroke="#000000" points="1507,-78 1507,-130 1755,-130 1755,-78 1507,-78"/>
</g>
<g id="clust33" class="cluster">
<title>cluster_AppModule_bootstrap</title>
<polygon fill="none" stroke="#000000" points="3367,-208 3367,-260 3491,-260 3491,-208 3367,-208"/>
</g>
<g id="clust34" class="cluster">
<title>cluster_AppModule_providers</title>
<polygon fill="none" stroke="#000000" points="16,-78 16,-130 1499,-130 1499,-78 16,-78"/>
</g>
<!-- AppComponent -->
<g id="node1" class="node">
<title>AppComponent</title>
<polygon fill="#ffffb3" stroke="#000000" points="6643.9399,-122 6538.0601,-122 6538.0601,-86 6643.9399,-86 6643.9399,-122"/>
<text text-anchor="middle" x="6591" y="-99.8" font-family="Times,serif" font-size="14.00" fill="#000000">AppComponent</text>
</g>
<!-- AppModule -->
<g id="node29" class="node">
<title>AppModule</title>
<polygon fill="#8dd3c7" stroke="#000000" points="3470.6571,-187 3467.6571,-191 3446.6571,-191 3443.6571,-187 3387.3429,-187 3387.3429,-151 3470.6571,-151 3470.6571,-187"/>
<text text-anchor="middle" x="3429" y="-164.8" font-family="Times,serif" font-size="14.00" fill="#000000">AppModule</text>
</g>
<!-- AppComponent&#45;&gt;AppModule -->
<g id="edge1" class="edge">
<title>AppComponent&#45;&gt;AppModule</title>
<path fill="none" stroke="#000000" d="M6591,-122.1985C6591,-146.3563 6591,-186 6591,-186 6591,-186 3480.7199,-186 3480.7199,-186"/>
<polygon fill="#000000" stroke="#000000" points="3480.72,-182.5001 3470.7199,-186 3480.7199,-189.5001 3480.72,-182.5001"/>
</g>
<!-- BreadcrumbComponent -->
<g id="node2" class="node">
<title>BreadcrumbComponent</title>
<polygon fill="#ffffb3" stroke="#000000" points="6520.0253,-122 6369.9747,-122 6369.9747,-86 6520.0253,-86 6520.0253,-122"/>
<text text-anchor="middle" x="6445" y="-99.8" font-family="Times,serif" font-size="14.00" fill="#000000">BreadcrumbComponent</text>
</g>
<!-- BreadcrumbComponent&#45;&gt;AppModule -->
<g id="edge2" class="edge">
<title>BreadcrumbComponent&#45;&gt;AppModule</title>
<path fill="none" stroke="#000000" d="M6445,-122.1532C6445,-145.7566 6445,-184 6445,-184 6445,-184 3480.7729,-184 3480.7729,-184"/>
<polygon fill="#000000" stroke="#000000" points="3480.7729,-180.5001 3470.7729,-184 3480.7729,-187.5001 3480.7729,-180.5001"/>
</g>
<!-- CarouselComponent -->
<g id="node3" class="node">
<title>CarouselComponent</title>
<polygon fill="#ffffb3" stroke="#000000" points="6351.594,-122 6220.406,-122 6220.406,-86 6351.594,-86 6351.594,-122"/>
<text text-anchor="middle" x="6286" y="-99.8" font-family="Times,serif" font-size="14.00" fill="#000000">CarouselComponent</text>
</g>
<!-- CarouselComponent&#45;&gt;AppModule -->
<g id="edge3" class="edge">
<title>CarouselComponent&#45;&gt;AppModule</title>
<path fill="none" stroke="#000000" d="M6286,-122.0908C6286,-145.1328 6286,-182 6286,-182 6286,-182 3480.7663,-182 3480.7663,-182"/>
<polygon fill="#000000" stroke="#000000" points="3480.7663,-178.5001 3470.7663,-182 3480.7662,-185.5001 3480.7663,-178.5001"/>
</g>
<!-- CloudResearchEnvironmentComponent -->
<g id="node4" class="node">
<title>CloudResearchEnvironmentComponent</title>
<polygon fill="#ffffb3" stroke="#000000" points="6201.9594,-122 5962.0406,-122 5962.0406,-86 6201.9594,-86 6201.9594,-122"/>
<text text-anchor="middle" x="6082" y="-99.8" font-family="Times,serif" font-size="14.00" fill="#000000">CloudResearchEnvironmentComponent</text>
</g>
<!-- CloudResearchEnvironmentComponent&#45;&gt;AppModule -->
<g id="edge4" class="edge">
<title>CloudResearchEnvironmentComponent&#45;&gt;AppModule</title>
<path fill="none" stroke="#000000" d="M6082,-122.0109C6082,-144.4852 6082,-180 6082,-180 6082,-180 3480.6723,-180 3480.6723,-180"/>
<polygon fill="#000000" stroke="#000000" points="3480.6723,-176.5001 3470.6723,-180 3480.6723,-183.5001 3480.6723,-176.5001"/>
</g>
<!-- CRELocalInstallationComponent -->
<g id="node5" class="node">
<title>CRELocalInstallationComponent</title>
<polygon fill="#ffffb3" stroke="#000000" points="5943.9184,-122 5740.0816,-122 5740.0816,-86 5943.9184,-86 5943.9184,-122"/>
<text text-anchor="middle" x="5842" y="-99.8" font-family="Times,serif" font-size="14.00" fill="#000000">CRELocalInstallationComponent</text>
</g>
<!-- CRELocalInstallationComponent&#45;&gt;AppModule -->
<g id="edge5" class="edge">
<title>CRELocalInstallationComponent&#45;&gt;AppModule</title>
<path fill="none" stroke="#000000" d="M5842,-122.2921C5842,-144.2057 5842,-178 5842,-178 5842,-178 3480.8821,-178 3480.8821,-178"/>
<polygon fill="#000000" stroke="#000000" points="3480.8822,-174.5001 3470.8821,-178 3480.8821,-181.5001 3480.8822,-174.5001"/>
</g>
<!-- CRELocalInstallationInstructionComponent -->
<g id="node6" class="node">
<title>CRELocalInstallationInstructionComponent</title>
<polygon fill="#ffffb3" stroke="#000000" points="5722.0702,-122 5457.9298,-122 5457.9298,-86 5722.0702,-86 5722.0702,-122"/>
<text text-anchor="middle" x="5590" y="-99.8" font-family="Times,serif" font-size="14.00" fill="#000000">CRELocalInstallationInstructionComponent</text>
</g>
<!-- CRELocalInstallationInstructionComponent&#45;&gt;AppModule -->
<g id="edge6" class="edge">
<title>CRELocalInstallationInstructionComponent&#45;&gt;AppModule</title>
<path fill="none" stroke="#000000" d="M5590,-122.1686C5590,-143.498 5590,-176 5590,-176 5590,-176 3480.7172,-176 3480.7172,-176"/>
<polygon fill="#000000" stroke="#000000" points="3480.7173,-172.5001 3470.7172,-176 3480.7172,-179.5001 3480.7173,-172.5001"/>
</g>
<!-- HeaderComponent -->
<g id="node7" class="node">
<title>HeaderComponent</title>
<polygon fill="#ffffb3" stroke="#000000" points="5439.7437,-122 5318.2563,-122 5318.2563,-86 5439.7437,-86 5439.7437,-122"/>
<text text-anchor="middle" x="5379" y="-99.8" font-family="Times,serif" font-size="14.00" fill="#000000">HeaderComponent</text>
</g>
<!-- HeaderComponent&#45;&gt;AppModule -->
<g id="edge7" class="edge">
<title>HeaderComponent&#45;&gt;AppModule</title>
<path fill="none" stroke="#000000" d="M5379,-122.0267C5379,-142.7672 5379,-174 5379,-174 5379,-174 3481.0852,-174 3481.0852,-174"/>
<polygon fill="#000000" stroke="#000000" points="3481.0852,-170.5001 3471.0852,-174 3481.0852,-177.5001 3481.0852,-170.5001"/>
</g>
<!-- HelpComponent -->
<g id="node8" class="node">
<title>HelpComponent</title>
<polygon fill="#ffffb3" stroke="#000000" points="5300.0452,-122 5191.9548,-122 5191.9548,-86 5300.0452,-86 5300.0452,-122"/>
<text text-anchor="middle" x="5246" y="-99.8" font-family="Times,serif" font-size="14.00" fill="#000000">HelpComponent</text>
</g>
<!-- HelpComponent&#45;&gt;AppModule -->
<g id="edge8" class="edge">
<title>HelpComponent&#45;&gt;AppModule</title>
<path fill="none" stroke="#000000" d="M5246,-122.2228C5246,-142.3652 5246,-172 5246,-172 5246,-172 3480.8009,-172 3480.8009,-172"/>
<polygon fill="#000000" stroke="#000000" points="3480.8009,-168.5001 3470.8009,-172 3480.8008,-175.5001 3480.8009,-168.5001"/>
</g>
<!-- HelpTopicComponent -->
<g id="node9" class="node">
<title>HelpTopicComponent</title>
<polygon fill="#ffffb3" stroke="#000000" points="5173.7021,-122 5032.2979,-122 5032.2979,-86 5173.7021,-86 5173.7021,-122"/>
<text text-anchor="middle" x="5103" y="-99.8" font-family="Times,serif" font-size="14.00" fill="#000000">HelpTopicComponent</text>
</g>
<!-- HelpTopicComponent&#45;&gt;AppModule -->
<g id="edge9" class="edge">
<title>HelpTopicComponent&#45;&gt;AppModule</title>
<path fill="none" stroke="#000000" d="M5103,-122.0348C5103,-141.5762 5103,-170 5103,-170 5103,-170 3480.7977,-170 3480.7977,-170"/>
<polygon fill="#000000" stroke="#000000" points="3480.7977,-166.5001 3470.7977,-170 3480.7976,-173.5001 3480.7977,-166.5001"/>
</g>
<!-- HomeComponent -->
<g id="node10" class="node">
<title>HomeComponent</title>
<polygon fill="#ffffb3" stroke="#000000" points="5014.5451,-122 4899.4549,-122 4899.4549,-86 5014.5451,-86 5014.5451,-122"/>
<text text-anchor="middle" x="4957" y="-99.8" font-family="Times,serif" font-size="14.00" fill="#000000">HomeComponent</text>
</g>
<!-- HomeComponent&#45;&gt;AppModule -->
<g id="edge10" class="edge">
<title>HomeComponent&#45;&gt;AppModule</title>
<path fill="none" stroke="#000000" d="M4957,-122.1061C4957,-141.3391 4957,-169 4957,-169 4957,-169 3480.6628,-169 3480.6628,-169"/>
<polygon fill="#000000" stroke="#000000" points="3480.6628,-165.5001 3470.6628,-169 3480.6627,-172.5001 3480.6628,-165.5001"/>
</g>
<!-- FooterComponent -->
<g id="node11" class="node">
<title>FooterComponent</title>
<polygon fill="#ffffb3" stroke="#000000" points="4880.8809,-122 4763.1191,-122 4763.1191,-86 4880.8809,-86 4880.8809,-122"/>
<text text-anchor="middle" x="4822" y="-99.8" font-family="Times,serif" font-size="14.00" fill="#000000">FooterComponent</text>
</g>
<!-- FooterComponent&#45;&gt;AppModule -->
<g id="edge11" class="edge">
<title>FooterComponent&#45;&gt;AppModule</title>
<path fill="none" stroke="#000000" d="M4822,-122.2222C4822,-140.8285 4822,-167 4822,-167 4822,-167 3480.6897,-167 3480.6897,-167"/>
<polygon fill="#000000" stroke="#000000" points="3480.6898,-163.5001 3470.6897,-167 3480.6897,-170.5001 3480.6898,-163.5001"/>
</g>
<!-- SlideComponent -->
<g id="node12" class="node">
<title>SlideComponent</title>
<polygon fill="#ffffb3" stroke="#000000" points="4745.1109,-122 4634.8891,-122 4634.8891,-86 4745.1109,-86 4745.1109,-122"/>
<text text-anchor="middle" x="4690" y="-99.8" font-family="Times,serif" font-size="14.00" fill="#000000">SlideComponent</text>
</g>
<!-- SlideComponent&#45;&gt;AppModule -->
<g id="edge12" class="edge">
<title>SlideComponent&#45;&gt;AppModule</title>
<path fill="none" stroke="#000000" d="M4690,-122.302C4690,-140.2699 4690,-165 4690,-165 4690,-165 3480.9557,-165 3480.9557,-165"/>
<polygon fill="#000000" stroke="#000000" points="3480.9558,-161.5001 3470.9557,-165 3480.9557,-168.5001 3480.9558,-161.5001"/>
</g>
<!-- StatisticsComponent -->
<g id="node13" class="node">
<title>StatisticsComponent</title>
<polygon fill="#ffffb3" stroke="#000000" points="4616.8864,-122 4485.1136,-122 4485.1136,-86 4616.8864,-86 4616.8864,-122"/>
<text text-anchor="middle" x="4551" y="-99.8" font-family="Times,serif" font-size="14.00" fill="#000000">StatisticsComponent</text>
</g>
<!-- StatisticsComponent&#45;&gt;AppModule -->
<g id="edge13" class="edge">
<title>StatisticsComponent&#45;&gt;AppModule</title>
<path fill="none" stroke="#000000" d="M4551,-122.0225C4551,-139.3734 4551,-163 4551,-163 4551,-163 3480.936,-163 3480.936,-163"/>
<polygon fill="#000000" stroke="#000000" points="3480.936,-159.5001 3470.936,-163 3480.9359,-166.5001 3480.936,-159.5001"/>
</g>
<!-- LoginComponent -->
<g id="node14" class="node">
<title>LoginComponent</title>
<polygon fill="#ffffb3" stroke="#000000" points="4467.2758,-122 4352.7242,-122 4352.7242,-86 4467.2758,-86 4467.2758,-122"/>
<text text-anchor="middle" x="4410" y="-99.8" font-family="Times,serif" font-size="14.00" fill="#000000">LoginComponent</text>
</g>
<!-- LoginComponent&#45;&gt;AppModule -->
<g id="edge14" class="edge">
<title>LoginComponent&#45;&gt;AppModule</title>
<path fill="none" stroke="#000000" d="M4410,-122.0352C4410,-138.7344 4410,-161 4410,-161 4410,-161 3480.8385,-161 3480.8385,-161"/>
<polygon fill="#000000" stroke="#000000" points="3480.8386,-157.5001 3470.8385,-161 3480.8385,-164.5001 3480.8386,-157.5001"/>
</g>
<!-- SetupCloudEnvironmentComponent -->
<g id="node15" class="node">
<title>SetupCloudEnvironmentComponent</title>
<polygon fill="#ffffb3" stroke="#000000" points="4334.0475,-122 4113.9525,-122 4113.9525,-86 4334.0475,-86 4334.0475,-122"/>
<text text-anchor="middle" x="4224" y="-99.8" font-family="Times,serif" font-size="14.00" fill="#000000">SetupCloudEnvironmentComponent</text>
</g>
<!-- SetupCloudEnvironmentComponent&#45;&gt;AppModule -->
<g id="edge15" class="edge">
<title>SetupCloudEnvironmentComponent&#45;&gt;AppModule</title>
<path fill="none" stroke="#000000" d="M4224,-122.0091C4224,-138.0494 4224,-159 4224,-159 4224,-159 3480.9019,-159 3480.9019,-159"/>
<polygon fill="#000000" stroke="#000000" points="3480.902,-155.5001 3470.9019,-159 3480.9019,-162.5001 3480.902,-155.5001"/>
</g>
<!-- ModalComponent -->
<g id="node16" class="node">
<title>ModalComponent</title>
<polygon fill="#ffffb3" stroke="#000000" points="4095.8823,-122 3978.1177,-122 3978.1177,-86 4095.8823,-86 4095.8823,-122"/>
<text text-anchor="middle" x="4037" y="-99.8" font-family="Times,serif" font-size="14.00" fill="#000000">ModalComponent</text>
</g>
<!-- ModalComponent&#45;&gt;AppModule -->
<g id="edge16" class="edge">
<title>ModalComponent&#45;&gt;AppModule</title>
<path fill="none" stroke="#000000" d="M4037,-122.2396C4037,-137.5706 4037,-157 4037,-157 4037,-157 3480.7903,-157 3480.7903,-157"/>
<polygon fill="#000000" stroke="#000000" points="3480.7903,-153.5001 3470.7903,-157 3480.7903,-160.5001 3480.7903,-153.5001"/>
</g>
<!-- NgbdModalContentComponent -->
<g id="node17" class="node">
<title>NgbdModalContentComponent</title>
<polygon fill="#ffffb3" stroke="#000000" points="3959.8215,-122 3766.1785,-122 3766.1785,-86 3959.8215,-86 3959.8215,-122"/>
<text text-anchor="middle" x="3863" y="-99.8" font-family="Times,serif" font-size="14.00" fill="#000000">NgbdModalContentComponent</text>
</g>
<!-- NgbdModalContentComponent&#45;&gt;AppModule -->
<g id="edge17" class="edge">
<title>NgbdModalContentComponent&#45;&gt;AppModule</title>
<path fill="none" stroke="#000000" d="M3863,-122.1243C3863,-136.7832 3863,-155 3863,-155 3863,-155 3481.0081,-155 3481.0081,-155"/>
<polygon fill="#000000" stroke="#000000" points="3481.0081,-151.5001 3471.0081,-155 3481.0081,-158.5001 3481.0081,-151.5001"/>
</g>
<!-- ProgressBarModalComponent -->
<g id="node18" class="node">
<title>ProgressBarModalComponent</title>
<polygon fill="#ffffb3" stroke="#000000" points="3748.3018,-122 3561.6982,-122 3561.6982,-86 3748.3018,-86 3748.3018,-122"/>
<text text-anchor="middle" x="3655" y="-99.8" font-family="Times,serif" font-size="14.00" fill="#000000">ProgressBarModalComponent</text>
</g>
<!-- ProgressBarModalComponent&#45;&gt;AppModule -->
<g id="edge18" class="edge">
<title>ProgressBarModalComponent&#45;&gt;AppModule</title>
<path fill="none" stroke="#000000" d="M3655,-122.2458C3655,-136.1772 3655,-153 3655,-153 3655,-153 3480.7153,-153 3480.7153,-153"/>
<polygon fill="#000000" stroke="#000000" points="3480.7153,-149.5001 3470.7153,-153 3480.7152,-156.5001 3480.7153,-149.5001"/>
</g>
<!-- ProgressBarModalContentComponent -->
<g id="node19" class="node">
<title>ProgressBarModalContentComponent</title>
<polygon fill="#ffffb3" stroke="#000000" points="3544.1343,-122 3313.8657,-122 3313.8657,-86 3544.1343,-86 3544.1343,-122"/>
<text text-anchor="middle" x="3429" y="-99.8" font-family="Times,serif" font-size="14.00" fill="#000000">ProgressBarModalContentComponent</text>
</g>
<!-- ProgressBarModalContentComponent&#45;&gt;AppModule -->
<g id="edge19" class="edge">
<title>ProgressBarModalContentComponent&#45;&gt;AppModule</title>
<path fill="none" stroke="#000000" d="M3429,-122.1061C3429,-122.1061 3429,-140.991 3429,-140.991"/>
<polygon fill="#000000" stroke="#000000" points="3425.5001,-140.9909 3429,-150.991 3432.5001,-140.991 3425.5001,-140.9909"/>
</g>
<!-- ProgressBarComponent -->
<g id="node20" class="node">
<title>ProgressBarComponent</title>
<polygon fill="#ffffb3" stroke="#000000" points="3295.752,-122 3146.248,-122 3146.248,-86 3295.752,-86 3295.752,-122"/>
<text text-anchor="middle" x="3221" y="-99.8" font-family="Times,serif" font-size="14.00" fill="#000000">ProgressBarComponent</text>
</g>
<!-- ProgressBarComponent&#45;&gt;AppModule -->
<g id="edge20" class="edge">
<title>ProgressBarComponent&#45;&gt;AppModule</title>
<path fill="none" stroke="#000000" d="M3221,-122.2458C3221,-136.1772 3221,-153 3221,-153 3221,-153 3376.9081,-153 3376.9081,-153"/>
<polygon fill="#000000" stroke="#000000" points="3376.9081,-156.5001 3386.9081,-153 3376.9081,-149.5001 3376.9081,-156.5001"/>
</g>
<!-- CreDashboardComponent -->
<g id="node21" class="node">
<title>CreDashboardComponent</title>
<polygon fill="#ffffb3" stroke="#000000" points="3128.1853,-122 2965.8147,-122 2965.8147,-86 3128.1853,-86 3128.1853,-122"/>
<text text-anchor="middle" x="3047" y="-99.8" font-family="Times,serif" font-size="14.00" fill="#000000">CreDashboardComponent</text>
</g>
<!-- CreDashboardComponent&#45;&gt;AppModule -->
<g id="edge21" class="edge">
<title>CreDashboardComponent&#45;&gt;AppModule</title>
<path fill="none" stroke="#000000" d="M3047,-122.1243C3047,-136.7832 3047,-155 3047,-155 3047,-155 3377.0266,-155 3377.0266,-155"/>
<polygon fill="#000000" stroke="#000000" points="3377.0266,-158.5001 3387.0266,-155 3377.0266,-151.5001 3377.0266,-158.5001"/>
</g>
<!-- CreRegistrationFormComponent -->
<g id="node22" class="node">
<title>CreRegistrationFormComponent</title>
<polygon fill="#ffffb3" stroke="#000000" points="2948.3116,-122 2747.6884,-122 2747.6884,-86 2948.3116,-86 2948.3116,-122"/>
<text text-anchor="middle" x="2848" y="-99.8" font-family="Times,serif" font-size="14.00" fill="#000000">CreRegistrationFormComponent</text>
</g>
<!-- CreRegistrationFormComponent&#45;&gt;AppModule -->
<g id="edge22" class="edge">
<title>CreRegistrationFormComponent&#45;&gt;AppModule</title>
<path fill="none" stroke="#000000" d="M2848,-122.2396C2848,-137.5706 2848,-157 2848,-157 2848,-157 3377.2159,-157 3377.2159,-157"/>
<polygon fill="#000000" stroke="#000000" points="3377.2159,-160.5001 3387.2159,-157 3377.2159,-153.5001 3377.2159,-160.5001"/>
</g>
<!-- OstackSetupComponent -->
<g id="node23" class="node">
<title>OstackSetupComponent</title>
<polygon fill="#ffffb3" stroke="#000000" points="2730.0912,-122 2577.9088,-122 2577.9088,-86 2730.0912,-86 2730.0912,-122"/>
<text text-anchor="middle" x="2654" y="-99.8" font-family="Times,serif" font-size="14.00" fill="#000000">OstackSetupComponent</text>
</g>
<!-- OstackSetupComponent&#45;&gt;AppModule -->
<g id="edge23" class="edge">
<title>OstackSetupComponent&#45;&gt;AppModule</title>
<path fill="none" stroke="#000000" d="M2654,-122.0091C2654,-138.0494 2654,-159 2654,-159 2654,-159 3377.3326,-159 3377.3326,-159"/>
<polygon fill="#000000" stroke="#000000" points="3377.3327,-162.5001 3387.3326,-159 3377.3326,-155.5001 3377.3327,-162.5001"/>
</g>
<!-- AwsSetupComponent -->
<g id="node24" class="node">
<title>AwsSetupComponent</title>
<polygon fill="#ffffb3" stroke="#000000" points="2560.3781,-122 2421.6219,-122 2421.6219,-86 2560.3781,-86 2560.3781,-122"/>
<text text-anchor="middle" x="2491" y="-99.8" font-family="Times,serif" font-size="14.00" fill="#000000">AwsSetupComponent</text>
</g>
<!-- AwsSetupComponent&#45;&gt;AppModule -->
<g id="edge24" class="edge">
<title>AwsSetupComponent&#45;&gt;AppModule</title>
<path fill="none" stroke="#000000" d="M2491,-122.0352C2491,-138.7344 2491,-161 2491,-161 2491,-161 3377.1799,-161 3377.1799,-161"/>
<polygon fill="#000000" stroke="#000000" points="3377.18,-164.5001 3387.1799,-161 3377.1799,-157.5001 3377.18,-164.5001"/>
</g>
<!-- GcpSetupComponent -->
<g id="node25" class="node">
<title>GcpSetupComponent</title>
<polygon fill="#ffffb3" stroke="#000000" points="2403.0422,-122 2266.9578,-122 2266.9578,-86 2403.0422,-86 2403.0422,-122"/>
<text text-anchor="middle" x="2335" y="-99.8" font-family="Times,serif" font-size="14.00" fill="#000000">GcpSetupComponent</text>
</g>
<!-- GcpSetupComponent&#45;&gt;AppModule -->
<g id="edge25" class="edge">
<title>GcpSetupComponent&#45;&gt;AppModule</title>
<path fill="none" stroke="#000000" d="M2335,-122.0225C2335,-139.3734 2335,-163 2335,-163 2335,-163 3377.1176,-163 3377.1176,-163"/>
<polygon fill="#000000" stroke="#000000" points="3377.1176,-166.5001 3387.1176,-163 3377.1176,-159.5001 3377.1176,-166.5001"/>
</g>
<!-- CloudSetupComponent -->
<g id="node26" class="node">
<title>CloudSetupComponent</title>
<polygon fill="#ffffb3" stroke="#000000" points="2248.9481,-122 2101.0519,-122 2101.0519,-86 2248.9481,-86 2248.9481,-122"/>
<text text-anchor="middle" x="2175" y="-99.8" font-family="Times,serif" font-size="14.00" fill="#000000">CloudSetupComponent</text>
</g>
<!-- CloudSetupComponent&#45;&gt;AppModule -->
<g id="edge26" class="edge">
<title>CloudSetupComponent&#45;&gt;AppModule</title>
<path fill="none" stroke="#000000" d="M2175,-122.302C2175,-140.2699 2175,-165 2175,-165 2175,-165 3377.2772,-165 3377.2772,-165"/>
<polygon fill="#000000" stroke="#000000" points="3377.2772,-168.5001 3387.2772,-165 3377.2771,-161.5001 3377.2772,-168.5001"/>
</g>
<!-- FaqComponent -->
<g id="node27" class="node">
<title>FaqComponent</title>
<polygon fill="#ffffb3" stroke="#000000" points="2083.3301,-122 1980.6699,-122 1980.6699,-86 2083.3301,-86 2083.3301,-122"/>
<text text-anchor="middle" x="2032" y="-99.8" font-family="Times,serif" font-size="14.00" fill="#000000">FaqComponent</text>
</g>
<!-- FaqComponent&#45;&gt;AppModule -->
<g id="edge27" class="edge">
<title>FaqComponent&#45;&gt;AppModule</title>
<path fill="none" stroke="#000000" d="M2032,-122.2222C2032,-140.8285 2032,-167 2032,-167 2032,-167 3377.1906,-167 3377.1906,-167"/>
<polygon fill="#000000" stroke="#000000" points="3377.1906,-170.5001 3387.1906,-167 3377.1905,-163.5001 3377.1906,-170.5001"/>
</g>
<!-- TermAndConditionComponent -->
<g id="node28" class="node">
<title>TermAndConditionComponent</title>
<polygon fill="#ffffb3" stroke="#000000" points="1962.7659,-122 1771.2341,-122 1771.2341,-86 1962.7659,-86 1962.7659,-122"/>
<text text-anchor="middle" x="1867" y="-99.8" font-family="Times,serif" font-size="14.00" fill="#000000">TermAndConditionComponent</text>
</g>
<!-- TermAndConditionComponent&#45;&gt;AppModule -->
<g id="edge28" class="edge">
<title>TermAndConditionComponent&#45;&gt;AppModule</title>
<path fill="none" stroke="#000000" d="M1867,-122.1061C1867,-141.3391 1867,-169 1867,-169 1867,-169 3377.2203,-169 3377.2203,-169"/>
<polygon fill="#000000" stroke="#000000" points="3377.2203,-172.5001 3387.2203,-169 3377.2202,-165.5001 3377.2203,-172.5001"/>
</g>
<!-- AppComponent  -->
<g id="node31" class="node">
<title>AppComponent </title>
<polygon fill="#80b1d3" stroke="#000000" points="3483.439,-252 3374.561,-252 3374.561,-216 3483.439,-216 3483.439,-252"/>
<text text-anchor="middle" x="3429" y="-229.8" font-family="Times,serif" font-size="14.00" fill="#000000">AppComponent </text>
</g>
<!-- AppModule&#45;&gt;AppComponent  -->
<g id="edge30" class="edge">
<title>AppModule&#45;&gt;AppComponent </title>
<path fill="none" stroke="#000000" stroke-dasharray="1,5" d="M3429,-187.1061C3429,-187.1061 3429,-205.991 3429,-205.991"/>
<polygon fill="#000000" stroke="#000000" points="3425.5001,-205.9909 3429,-215.991 3432.5001,-205.991 3425.5001,-205.9909"/>
</g>
<!-- Ng2PhenomenalPortalRoutingModule -->
<g id="node30" class="node">
<title>Ng2PhenomenalPortalRoutingModule</title>
<polygon fill="#8dd3c7" stroke="#000000" points="1746.9212,-122 1743.9212,-126 1722.9212,-126 1719.9212,-122 1515.0788,-122 1515.0788,-86 1746.9212,-86 1746.9212,-122"/>
<text text-anchor="middle" x="1631" y="-99.8" font-family="Times,serif" font-size="14.00" fill="#000000">Ng2PhenomenalPortalRoutingModule</text>
</g>
<!-- Ng2PhenomenalPortalRoutingModule&#45;&gt;AppModule -->
<g id="edge29" class="edge">
<title>Ng2PhenomenalPortalRoutingModule&#45;&gt;AppModule</title>
<path fill="none" stroke="#000000" d="M1631,-122.0348C1631,-141.5762 1631,-170 1631,-170 1631,-170 3377.2023,-170 3377.2023,-170"/>
<polygon fill="#000000" stroke="#000000" points="3377.2024,-173.5001 3387.2023,-170 3377.2023,-166.5001 3377.2024,-173.5001"/>
</g>
<!-- BreadcrumbService -->
<g id="node32" class="node">
<title>BreadcrumbService</title>
<ellipse fill="#fdb462" stroke="#000000" cx="1403" cy="-104" rx="87.9394" ry="18"/>
<text text-anchor="middle" x="1403" y="-99.8" font-family="Times,serif" font-size="14.00" fill="#000000">BreadcrumbService</text>
</g>
<!-- BreadcrumbService&#45;&gt;AppModule -->
<g id="edge31" class="edge">
<title>BreadcrumbService&#45;&gt;AppModule</title>
<path fill="none" stroke="#000000" d="M1403,-122.2228C1403,-142.3652 1403,-172 1403,-172 1403,-172 3377.1492,-172 3377.1492,-172"/>
<polygon fill="#000000" stroke="#000000" points="3377.1492,-175.5001 3387.1492,-172 3377.1491,-168.5001 3377.1492,-175.5001"/>
</g>
<!-- WikiService -->
<g id="node33" class="node">
<title>WikiService</title>
<ellipse fill="#fdb462" stroke="#000000" cx="1238" cy="-104" rx="59.1064" ry="18"/>
<text text-anchor="middle" x="1238" y="-99.8" font-family="Times,serif" font-size="14.00" fill="#000000">WikiService</text>
</g>
<!-- WikiService&#45;&gt;AppModule -->
<g id="edge32" class="edge">
<title>WikiService&#45;&gt;AppModule</title>
<path fill="none" stroke="#000000" d="M1238,-122.0267C1238,-142.7672 1238,-174 1238,-174 1238,-174 3377.1883,-174 3377.1883,-174"/>
<polygon fill="#000000" stroke="#000000" points="3377.1883,-177.5001 3387.1883,-174 3377.1883,-170.5001 3377.1883,-177.5001"/>
</g>
<!-- JenkinsReportService -->
<g id="node34" class="node">
<title>JenkinsReportService</title>
<ellipse fill="#fdb462" stroke="#000000" cx="1065" cy="-104" rx="95.483" ry="18"/>
<text text-anchor="middle" x="1065" y="-99.8" font-family="Times,serif" font-size="14.00" fill="#000000">JenkinsReportService</text>
</g>
<!-- JenkinsReportService&#45;&gt;AppModule -->
<g id="edge33" class="edge">
<title>JenkinsReportService&#45;&gt;AppModule</title>
<path fill="none" stroke="#000000" d="M1065,-122.1686C1065,-143.498 1065,-176 1065,-176 1065,-176 3377.2169,-176 3377.2169,-176"/>
<polygon fill="#000000" stroke="#000000" points="3377.217,-179.5001 3387.2169,-176 3377.2169,-172.5001 3377.217,-179.5001"/>
</g>
<!-- ApplicationLibraryService -->
<g id="node35" class="node">
<title>ApplicationLibraryService</title>
<ellipse fill="#fdb462" stroke="#000000" cx="837" cy="-104" rx="114.5832" ry="18"/>
<text text-anchor="middle" x="837" y="-99.8" font-family="Times,serif" font-size="14.00" fill="#000000">ApplicationLibraryService</text>
</g>
<!-- ApplicationLibraryService&#45;&gt;AppModule -->
<g id="edge34" class="edge">
<title>ApplicationLibraryService&#45;&gt;AppModule</title>
<path fill="none" stroke="#000000" d="M837,-122.2921C837,-144.2057 837,-178 837,-178 837,-178 3377.236,-178 3377.236,-178"/>
<polygon fill="#000000" stroke="#000000" points="3377.2361,-181.5001 3387.236,-178 3377.236,-174.5001 3377.2361,-181.5001"/>
</g>
<!-- UserService -->
<g id="node36" class="node">
<title>UserService</title>
<ellipse fill="#fdb462" stroke="#000000" cx="646" cy="-104" rx="58.4415" ry="18"/>
<text text-anchor="middle" x="646" y="-99.8" font-family="Times,serif" font-size="14.00" fill="#000000">UserService</text>
</g>
<!-- UserService&#45;&gt;AppModule -->
<g id="edge35" class="edge">
<title>UserService&#45;&gt;AppModule</title>
<path fill="none" stroke="#000000" d="M646,-122.0109C646,-144.4852 646,-180 646,-180 646,-180 3377.2257,-180 3377.2257,-180"/>
<polygon fill="#000000" stroke="#000000" points="3377.2257,-183.5001 3387.2257,-180 3377.2256,-176.5001 3377.2257,-183.5001"/>
</g>
<!-- GalaxyService -->
<g id="node37" class="node">
<title>GalaxyService</title>
<ellipse fill="#fdb462" stroke="#000000" cx="502" cy="-104" rx="67.7548" ry="18"/>
<text text-anchor="middle" x="502" y="-99.8" font-family="Times,serif" font-size="14.00" fill="#000000">GalaxyService</text>
</g>
<!-- GalaxyService&#45;&gt;AppModule -->
<g id="edge36" class="edge">
<title>GalaxyService&#45;&gt;AppModule</title>
<path fill="none" stroke="#000000" d="M502,-122.0908C502,-145.1328 502,-182 502,-182 502,-182 3377.3423,-182 3377.3423,-182"/>
<polygon fill="#000000" stroke="#000000" points="3377.3423,-185.5001 3387.3423,-182 3377.3422,-178.5001 3377.3423,-185.5001"/>
</g>
<!-- CloudProviderMetadataService -->
<g id="node38" class="node">
<title>CloudProviderMetadataService</title>
<ellipse fill="#fdb462" stroke="#000000" cx="283" cy="-104" rx="132.5636" ry="18"/>
<text text-anchor="middle" x="283" y="-99.8" font-family="Times,serif" font-size="14.00" fill="#000000">CloudProviderMetadataService</text>
</g>
<!-- CloudProviderMetadataService&#45;&gt;AppModule -->
<g id="edge37" class="edge">
<title>CloudProviderMetadataService&#45;&gt;AppModule</title>
<path fill="none" stroke="#000000" d="M283,-122.1532C283,-145.7566 283,-184 283,-184 283,-184 3377.1991,-184 3377.1991,-184"/>
<polygon fill="#000000" stroke="#000000" points="3377.1992,-187.5001 3387.1991,-184 3377.1991,-180.5001 3377.1992,-187.5001"/>
</g>
<!-- AppConfig -->
<g id="node39" class="node">
<title>AppConfig</title>
<ellipse fill="#fdb462" stroke="#000000" cx="78" cy="-104" rx="54.4778" ry="18"/>
<text text-anchor="middle" x="78" y="-99.8" font-family="Times,serif" font-size="14.00" fill="#000000">AppConfig</text>
</g>
<!-- AppConfig&#45;&gt;AppModule -->
<g id="edge38" class="edge">
<title>AppConfig&#45;&gt;AppModule</title>
<path fill="none" stroke="#000000" d="M78,-122.1985C78,-146.3563 78,-186 78,-186 78,-186 3377.2375,-186 3377.2375,-186"/>
<polygon fill="#000000" stroke="#000000" points="3377.2376,-189.5001 3387.2375,-186 3377.2375,-182.5001 3377.2376,-189.5001"/>
</g>
</g>
</svg>
