<?xml version="1.0" encoding="UTF-8" standalone="no"?>
<!DOCTYPE svg PUBLIC "-//W3C//DTD SVG 1.1//EN"
 "http://www.w3.org/Graphics/SVG/1.1/DTD/svg11.dtd">
<!-- Generated by graphviz version 2.40.1 (20161225.0304)
 -->
<!-- Title: dependencies Pages: 1 -->
<svg width="1500pt" height="211pt"
 viewBox="0.00 0.00 1500.00 211.00" xmlns="http://www.w3.org/2000/svg" xmlns:xlink="http://www.w3.org/1999/xlink">
<g id="graph0" class="graph" transform="scale(1 1) rotate(0) translate(4 207)">
<title>dependencies</title>
<polygon fill="#ffffff" stroke="transparent" points="-4,4 -4,-207 1496,-207 1496,4 -4,4"/>
<text text-anchor="start" x="725.0091" y="-42.4" font-family="sans-serif" font-weight="bold" font-size="14.00" fill="#000000">Legend</text>
<polygon fill="#ffffb3" stroke="transparent" points="512,-10 512,-30 532,-30 532,-10 512,-10"/>
<text text-anchor="start" x="535.629" y="-15.4" font-family="sans-serif" font-size="14.00" fill="#000000"> &#160;Declarations</text>
<polygon fill="#8dd3c7" stroke="transparent" points="625,-10 625,-30 645,-30 645,-10 625,-10"/>
<text text-anchor="start" x="648.7251" y="-15.4" font-family="sans-serif" font-size="14.00" fill="#000000"> &#160;Module</text>
<polygon fill="#80b1d3" stroke="transparent" points="711,-10 711,-30 731,-30 731,-10 711,-10"/>
<text text-anchor="start" x="734.7812" y="-15.4" font-family="sans-serif" font-size="14.00" fill="#000000"> &#160;Bootstrap</text>
<polygon fill="#fdb462" stroke="transparent" points="808,-10 808,-30 828,-30 828,-10 808,-10"/>
<text text-anchor="start" x="831.6732" y="-15.4" font-family="sans-serif" font-size="14.00" fill="#000000"> &#160;Providers</text>
<polygon fill="#fb8072" stroke="transparent" points="904,-10 904,-30 924,-30 924,-10 904,-10"/>
<text text-anchor="start" x="927.7258" y="-15.4" font-family="sans-serif" font-size="14.00" fill="#000000"> &#160;Exports</text>
<g id="clust1" class="cluster">
<title>cluster_ApplicationLibraryModule</title>
<polygon fill="none" stroke="#000000" stroke-dasharray="1,5" points="8,-70 8,-195 1484,-195 1484,-70 8,-70"/>
</g>
<g id="clust2" class="cluster">
<title>cluster_ApplicationLibraryModule_declarations</title>
<polygon fill="none" stroke="#000000" points="480,-78 480,-130 1476,-130 1476,-78 480,-78"/>
</g>
<g id="clust9" class="cluster">
<title>cluster_ApplicationLibraryModule_imports</title>
<polygon fill="none" stroke="#000000" points="290,-78 290,-130 472,-130 472,-78 290,-78"/>
</g>
<g id="clust12" class="cluster">
<title>cluster_ApplicationLibraryModule_providers</title>
<polygon fill="none" stroke="#000000" points="16,-78 16,-130 282,-130 282,-78 16,-78"/>
</g>
<!-- ApplicationGridComponent -->
<g id="node1" class="node">
<title>ApplicationGridComponent</title>
<polygon fill="#ffffb3" stroke="#000000" points="1467.5884,-122 1294.4116,-122 1294.4116,-86 1467.5884,-86 1467.5884,-122"/>
<text text-anchor="middle" x="1381" y="-99.8" font-family="Times,serif" font-size="14.00" fill="#000000">ApplicationGridComponent</text>
</g>
<!-- ApplicationLibraryModule -->
<g id="node7" class="node">
<title>ApplicationLibraryModule</title>
<polygon fill="#8dd3c7" stroke="#000000" points="803.6274,-187 800.6274,-191 779.6274,-191 776.6274,-187 636.3726,-187 636.3726,-151 803.6274,-151 803.6274,-187"/>
<text text-anchor="middle" x="720" y="-164.8" font-family="Times,serif" font-size="14.00" fill="#000000">ApplicationLibraryModule</text>
</g>
<!-- ApplicationGridComponent&#45;&gt;ApplicationLibraryModule -->
<g id="edge1" class="edge">
<title>ApplicationGridComponent&#45;&gt;ApplicationLibraryModule</title>
<path fill="none" stroke="#000000" d="M1381,-122.2921C1381,-144.2057 1381,-178 1381,-178 1381,-178 813.7161,-178 813.7161,-178"/>
<polygon fill="#000000" stroke="#000000" points="813.7161,-174.5001 803.7161,-178 813.7161,-181.5001 813.7161,-174.5001"/>
</g>
<!-- ApplicationLibraryComponent -->
<g id="node2" class="node">
<title>ApplicationLibraryComponent</title>
<polygon fill="#ffffb3" stroke="#000000" points="1276.91,-122 1087.09,-122 1087.09,-86 1276.91,-86 1276.91,-122"/>
<text text-anchor="middle" x="1182" y="-99.8" font-family="Times,serif" font-size="14.00" fill="#000000">ApplicationLibraryComponent</text>
</g>
<!-- ApplicationLibraryComponent&#45;&gt;ApplicationLibraryModule -->
<g id="edge2" class="edge">
<title>ApplicationLibraryComponent&#45;&gt;ApplicationLibraryModule</title>
<path fill="none" stroke="#000000" d="M1182,-122.1061C1182,-141.3391 1182,-169 1182,-169 1182,-169 813.6647,-169 813.6647,-169"/>
<polygon fill="#000000" stroke="#000000" points="813.6647,-165.5001 803.6647,-169 813.6647,-172.5001 813.6647,-165.5001"/>
</g>
<!-- ApplicationListComponent -->
<g id="node3" class="node">
<title>ApplicationListComponent</title>
<polygon fill="#ffffb3" stroke="#000000" points="1069.7091,-122 900.2909,-122 900.2909,-86 1069.7091,-86 1069.7091,-122"/>
<text text-anchor="middle" x="985" y="-99.8" font-family="Times,serif" font-size="14.00" fill="#000000">ApplicationListComponent</text>
</g>
<!-- ApplicationListComponent&#45;&gt;ApplicationLibraryModule -->
<g id="edge3" class="edge">
<title>ApplicationListComponent&#45;&gt;ApplicationLibraryModule</title>
<path fill="none" stroke="#000000" d="M985,-122.027C985,-138.3976 985,-160 985,-160 985,-160 813.8477,-160 813.8477,-160"/>
<polygon fill="#000000" stroke="#000000" points="813.8477,-156.5001 803.8477,-160 813.8476,-163.5001 813.8477,-156.5001"/>
</g>
<!-- ApplicationDetailComponent -->
<g id="node4" class="node">
<title>ApplicationDetailComponent</title>
<polygon fill="#ffffb3" stroke="#000000" points="882.6386,-122 701.3614,-122 701.3614,-86 882.6386,-86 882.6386,-122"/>
<text text-anchor="middle" x="792" y="-99.8" font-family="Times,serif" font-size="14.00" fill="#000000">ApplicationDetailComponent</text>
</g>
<!-- ApplicationDetailComponent&#45;&gt;ApplicationLibraryModule -->
<g id="edge4" class="edge">
<title>ApplicationDetailComponent&#45;&gt;ApplicationLibraryModule</title>
<path fill="none" stroke="#000000" d="M752.4972,-122.1061C752.4972,-122.1061 752.4972,-140.991 752.4972,-140.991"/>
<polygon fill="#000000" stroke="#000000" points="748.9973,-140.9909 752.4972,-150.991 755.9973,-140.991 748.9973,-140.9909"/>
</g>
<!-- FilterPipe -->
<g id="node5" class="node">
<title>FilterPipe</title>
<polygon fill="#ffffb3" stroke="#000000" points="683.7177,-122 612.2823,-122 612.2823,-86 683.7177,-86 683.7177,-122"/>
<text text-anchor="middle" x="648" y="-99.8" font-family="Times,serif" font-size="14.00" fill="#000000">FilterPipe</text>
</g>
<!-- FilterPipe&#45;&gt;ApplicationLibraryModule -->
<g id="edge5" class="edge">
<title>FilterPipe&#45;&gt;ApplicationLibraryModule</title>
<path fill="none" stroke="#000000" d="M659.8976,-122.1061C659.8976,-122.1061 659.8976,-140.991 659.8976,-140.991"/>
<polygon fill="#000000" stroke="#000000" points="656.3977,-140.9909 659.8976,-150.991 663.3977,-140.991 656.3977,-140.9909"/>
</g>
<!-- TreeComponent -->
<g id="node6" class="node">
<title>TreeComponent</title>
<polygon fill="#ffffb3" stroke="#000000" points="594.4748,-122 487.5252,-122 487.5252,-86 594.4748,-86 594.4748,-122"/>
<text text-anchor="middle" x="541" y="-99.8" font-family="Times,serif" font-size="14.00" fill="#000000">TreeComponent</text>
</g>
<!-- TreeComponent&#45;&gt;ApplicationLibraryModule -->
<g id="edge6" class="edge">
<title>TreeComponent&#45;&gt;ApplicationLibraryModule</title>
<path fill="none" stroke="#000000" d="M541,-122.027C541,-138.3976 541,-160 541,-160 541,-160 626.265,-160 626.265,-160"/>
<polygon fill="#000000" stroke="#000000" points="626.265,-163.5001 636.265,-160 626.265,-156.5001 626.265,-163.5001"/>
</g>
<!-- applicationLibraryRouting -->
<g id="node8" class="node">
<title>applicationLibraryRouting</title>
<polygon fill="#8dd3c7" stroke="#000000" points="463.8033,-122 460.8033,-126 439.8033,-126 436.8033,-122 298.1967,-122 298.1967,-86 463.8033,-86 463.8033,-122"/>
<text text-anchor="middle" x="381" y="-99.8" font-family="Times,serif" font-size="14.00" fill="#000000">applicationLibraryRouting</text>
</g>
<!-- applicationLibraryRouting&#45;&gt;ApplicationLibraryModule -->
<g id="edge7" class="edge">
<title>applicationLibraryRouting&#45;&gt;ApplicationLibraryModule</title>
<path fill="none" stroke="#000000" d="M381,-122.1061C381,-141.3391 381,-169 381,-169 381,-169 626.2022,-169 626.2022,-169"/>
<polygon fill="#000000" stroke="#000000" points="626.2023,-172.5001 636.2022,-169 626.2022,-165.5001 626.2023,-172.5001"/>
</g>
<!-- ApplicationsDatabaseService -->
<g id="node9" class="node">
<title>ApplicationsDatabaseService</title>
<ellipse fill="#fdb462" stroke="#000000" cx="149" cy="-104" rx="124.9539" ry="18"/>
<text text-anchor="middle" x="149" y="-99.8" font-family="Times,serif" font-size="14.00" fill="#000000">ApplicationsDatabaseService</text>
</g>
<!-- ApplicationsDatabaseService&#45;&gt;ApplicationLibraryModule -->
<g id="edge8" class="edge">
<title>ApplicationsDatabaseService&#45;&gt;ApplicationLibraryModule</title>
<path fill="none" stroke="#000000" d="M149,-122.2921C149,-144.2057 149,-178 149,-178 149,-178 626.3602,-178 626.3602,-178"/>
<polygon fill="#000000" stroke="#000000" points="626.3602,-181.5001 636.3602,-178 626.3602,-174.5001 626.3602,-181.5001"/>
</g>
</g>
</svg>
